USFL
nRows=112
nColumns=2
inDegrees=yes
endheader
time	med_gas_r	
2.79133	 34.851520	
2.8629	 34.886682	
2.93448	 34.929630	
3.00605	 34.926923	
3.07762	 34.859381	
3.14919	 34.898903	
3.22077	 34.876115	
3.29234	 34.877135	
3.36391	 34.932363	
3.43548	 34.903088	
3.50706	 34.847618	
3.57863	 34.773092	
3.6502	 34.815875	
3.72177	 34.812272	
3.79335	 34.902375	
3.86492	 34.952720	
3.93649	 35.044508	
4.00806	 35.005078	
4.07964	 34.919308	
4.15121	 34.957440	
4.22278	 34.904836	
4.29435	 34.958026	
4.36593	 34.949788	
4.4375	 34.907317	
4.50907	 34.950356	
4.58065	 34.882897	
4.65222	 34.892405	
4.72379	 34.888511	
4.79536	 34.967621	
4.86694	 35.010567	
4.93851	 35.065334	
5.01008	 34.872889	
5.08165	 34.939997	
5.15323	 34.862972	
5.2248	 32.744423	
5.29637	 30.320813	
5.36794	 28.321004	
5.43952	 27.245375	
5.51109	 27.054824	
5.58266	 26.819561	
5.65423	 26.425832	
5.72581	 24.372988	
5.79738	 24.450986	
5.86895	 24.408475	
5.94052	 22.807781	
6.0121	 22.714280	
6.08367	 22.713352	
6.15524	 22.469620	
6.22681	 22.509245	
6.29839	 22.510667	
6.36996	 22.536571	
6.44153	 22.586394	
6.5131	 22.597421	
6.58468	 22.609076	
6.65625	 22.516039	
6.72782	 22.547804	
6.7994	 22.687114	
6.87097	 22.752532	
6.94254	 22.775468	
7.01411	 22.847169	
7.08569	 22.800292	
7.15726	 22.805916	
7.22883	 22.947750	
7.3004	 22.973249	
7.37198	 23.093798	
7.44355	 23.098086	
7.51512	 23.097074	
7.58669	 23.184093	
7.65827	 23.166363	
7.72984	 23.110475	
7.80141	 23.011260	
7.87298	 22.991793	
7.94456	 23.052815	
8.01613	 23.151641	
8.0877	 23.158749	
8.15927	 23.254323	
8.23085	 23.206487	
8.30242	 23.302140	
8.37399	 23.328348	
8.44556	 23.356754	
8.51714	 23.367352	
8.58871	 23.401751	
8.66028	 23.609672	
8.73185	 23.713880	
8.80343	 23.714264	
8.875	 23.716059	
8.94657	 23.657503	
9.01815	 23.618484	
9.08972	 23.613334	
9.16129	 23.727025	
9.23286	 23.697024	
9.30444	 23.636836	
9.37601	 23.838102	
9.44758	 23.889982	
9.51915	 24.003143	
9.59073	 23.996121	
9.6623	 24.026799	
9.73387	 24.117120	
9.80544	 24.527586	
9.87702	 24.530969	
9.94859	 24.697322	
10.0202	 24.613811	
10.0917	 25.897049	
10.1633	 29.077949	
10.2349	 30.104461	
10.3065	 32.491550	
10.378	 34.182271	
10.4496	 33.933598	
10.5212	 33.862344	
10.5927	 34.178958	
10.6643	 35.928409	
10.7359	 36.058414	
